<svg width="66" height="65" viewBox="0 0 66 65" fill="none" xmlns="http://www.w3.org/2000/svg">
<g id="Group">
<path id="Vector" d="M29.7633 3.76159C30.7535 3.25946 31.8674 2.99597 33 2.99597C34.1326 2.99597 35.2465 3.25946 36.2367 3.76159L61.2867 16.4667C61.806 16.7304 62.2387 17.1161 62.5399 17.5839C62.8412 18.0516 63 18.5844 63 19.1271V44.1934C62.9997 45.279 62.6816 46.3447 62.0785 47.2802C61.4754 48.2158 60.6093 48.987 59.57 49.5141L36.2367 61.3547C35.2465 61.8569 34.1326 62.1203 33 62.1203C31.8674 62.1203 30.7535 61.8569 29.7633 61.3547L6.43 49.5141C5.39118 48.9873 4.52544 48.2165 3.92238 47.2816C3.31932 46.3466 3.00088 45.2815 3 44.1964V19.1271C2.99998 18.5844 3.15881 18.0516 3.46005 17.5839C3.76129 17.1161 4.19399 16.7304 4.71333 16.4667L29.7633 3.76159Z" stroke="#754E29" stroke-width="4.16667" stroke-linecap="round" stroke-linejoin="round"/>
<path id="Vector_2" d="M3 17.3381L33 32.5575M33 32.5575L63 17.3381M33 32.5575V62.9962" stroke="#754E29" stroke-width="4.16667" stroke-linejoin="round"/>
<path id="Vector_3" d="M18 24.9474L48 9.72803M13 33.5555L23 38.6448" stroke="#754E29" stroke-width="4.16667" stroke-linecap="round" stroke-linejoin="round"/>
</g>
</svg>
